<svg xmlns="http://www.w3.org/2000/svg" xmlns:xlink="http://www.w3.org/1999/xlink" version="1.1" x="0px" y="0px" viewBox="0 0 100 125" style="enable-background:new 0 0 100 100;" xml:space="preserve"><g><path d="M56.03613,22.23975c4.3418,0.81201,8.53809,5.68066,9.25,9.32715c0.18652,0.95459,1.02344,1.61719,1.96094,1.61719   c0.12695,0,0.25586-0.01221,0.38574-0.0376c1.08398-0.21191,1.79102-1.26221,1.5791-2.34619   c-1.09766-5.62061-6.91113-11.45801-12.44141-12.49219c-1.08301-0.20459-2.12988,0.51221-2.33301,1.59814   S54.9502,22.03662,56.03613,22.23975z"/><path d="M76.72723,30.94684c-0.90631-5.17761-3.26416-9.79425-6.86981-13.30963   c-4.72968-4.61102-11.39154-7.20935-19.35181-7.58038v-0.00079c-0.00824-0.00037-0.01691-0.00024-0.02515-0.00061   c-0.63934-0.02936-1.28436-0.04883-1.94012-0.04938c-0.01196,0-0.02313-0.00092-0.0351-0.00092   c-0.005,0-0.00958,0.0014-0.01459,0.00146c-0.03925-0.00232-0.07648-0.01172-0.11627-0.01172   c-0.01355,0-0.02661,0.00092-0.04016,0.00098c-15.88977,0.0152-26.99731,8.94305-28.4411,22.79144   c-2.83887,3.66193-4.38727,6.29779-4.38727,9.21808v9.2124c0,7.1416,2.3291,9.79688,3.33008,10.60645   c0.73914,0.59839,1.65723,1.34113,3.07166,2.1004l1.01721,5.91522c0.36572,2.03711,1.27441,3.94336,2.62744,5.51172   l10.56348,12.23926c1.32373,1.53418,3.24512,2.41406,5.27197,2.41406h5.11792v0.00024h1.99963h2.00037v-0.00024h5.68872   c10.39844,0,14.89062-8.87988,16.80957-12.67188c0.95514-1.88928,1.68475-4.237,2.2569-6.84827   c5.51471-0.22723,8.21521-1.84521,8.65228-10.3197c0.30957-5.97949,0.56738-11.61719,0.58105-20.08447   C84.50409,34.02728,80.06244,31.60907,76.72723,30.94684z M73.14941,35.80957c0,1.06592,0.00684,2.25244,0.01562,3.53369   c0.04724,7.68329,0.11658,19.10181-1.31689,27.76587c-0.27521,0.3941-5.65155,7.89575-15.97998,7.89575h-5.36255V14.07782   C64.32501,14.81433,73.14941,23.1673,73.14941,35.80957z M46.50562,14.05823v16.68945   c-11.76306,0.04077-19.05731,0.45087-22.38983,0.69708C25.96234,21.14349,34.3064,14.66003,46.50562,14.05823z M22.79822,35.56519   c1.81366-0.16248,9.53625-0.76685,23.7074-0.81738v8.65076c-15.97168-0.10431-24.27618-1.51569-26.8606-2.47131   C19.97485,39.61395,20.92755,38.01099,22.79822,35.56519z M19.50586,51.21777v-6.18573   c6.9267,1.98157,21.09534,2.31702,26.99976,2.36798v16.52881c-18.92517-0.17853-23.11444-3.56366-25.15356-5.21399   C21.27686,58.65332,19.50586,57.15234,19.50586,51.21777z M41.3877,86.00488c-0.8623,0-1.68018-0.37402-2.24365-1.02734   L28.58057,72.73828c-0.88477-1.02539-1.479-2.27246-1.71582-3.59082L26.2663,65.6676   c4.05695,1.20538,10.28241,2.16846,20.23932,2.2608v18.07648H41.3877z M56.19434,86.00488h-5.68872v-7h5.36255   c6.15002,0,10.83093-2.22418,14.04645-4.53711c-0.15369,0.36884-0.31183,0.72681-0.48004,1.05957   C67.58203,79.18945,64.13379,86.00488,56.19434,86.00488z M79.91895,59.95801c-0.27625,5.35083-0.86725,6.33887-3.92963,6.52155   c1.28241-8.70245,1.22333-19.28198,1.17474-27.16119c-0.00781-1.27197-0.01465-2.4502-0.01465-3.50879   c0-0.20087-0.00952-0.39917-0.01361-0.59894c1.56262,0.58508,3.36304,1.89728,3.35834,4.8631   C80.48047,48.44873,80.22559,54.03418,79.91895,59.95801z"/></g><text x="0" y="115" fill="#000000" font-size="5px" font-weight="bold" font-family="'Helvetica Neue', Helvetica, Arial-Unicode, Arial, Sans-serif">Created by Evgeny Filatov</text><text x="0" y="120" fill="#000000" font-size="5px" font-weight="bold" font-family="'Helvetica Neue', Helvetica, Arial-Unicode, Arial, Sans-serif">from the Noun Project</text></svg>