<svg xmlns="http://www.w3.org/2000/svg" viewBox="0 0 62 91.25" x="0px" y="0px"><title>Asset 37</title><g data-name="Layer 2"><g data-name="Layer 1"><path d="M31,14a7,7,0,1,0-7-7A7,7,0,0,0,31,14ZM31,2a5,5,0,1,1-5,5A5,5,0,0,1,31,2Z"/><path d="M58,17H50.11l6.8-3.42A4,4,0,0,0,58.69,8.2a4,4,0,0,0-5.37-1.77L32.31,17h-2.5L8.8,6.43A4,4,0,0,0,3.43,8.2,4,4,0,0,0,5.2,13.57L12,17H4a4,4,0,0,0,0,8H22V36.71L6.61,60.58A4,4,0,0,0,7.87,66.1l.84.53a4,4,0,0,0,2.13.62,4,4,0,0,0,.88-.1,4,4,0,0,0,2.5-1.77L22,53V69a4,4,0,0,0,4,4h2a4,4,0,0,0,3-1.36A4,4,0,0,0,34,73h2a4,4,0,0,0,4-4V53l7.77,12.34a4,4,0,0,0,2.5,1.77,4,4,0,0,0,.89.1,4,4,0,0,0,2.12-.62l.85-.53a4,4,0,0,0,1.25-5.53L40,36.71V25H58a4,4,0,0,0,0-8ZM54.22,8.21a2,2,0,0,1,2.69.89,1.94,1.94,0,0,1,.21.89A2,2,0,0,1,56,11.79L45.66,17h-8.9ZM6.09,11.78A2,2,0,0,1,5,10a2,2,0,0,1,.21-.9A2,2,0,0,1,7.9,8.21L25.36,17h-8.9Zm6.44,52.53a2,2,0,0,1-2.75.61l-.85-.53a2,2,0,0,1-.63-2.75L22,40.4v8.89Zm41.16-2.68a2,2,0,0,1-.62,2.76l-.86.54a2,2,0,0,1-2.75-.62L40,49.29V40.4ZM58,23H38V69a2,2,0,0,1-2,2H34a2,2,0,0,1-2-2V42H30V69a2,2,0,0,1-2,2H26a2,2,0,0,1-2-2V23H4a2,2,0,0,1,0-4H58a2,2,0,0,1,0,4Z"/></g></g><text x="0" y="88" fill="#000000" font-size="5px" font-weight="bold" font-family="'Helvetica Neue', Helvetica, Arial-Unicode, Arial, Sans-serif">Created by Makarenko Andrey</text><text x="0" y="93" fill="#000000" font-size="5px" font-weight="bold" font-family="'Helvetica Neue', Helvetica, Arial-Unicode, Arial, Sans-serif">from the Noun Project</text></svg>