<svg xmlns="http://www.w3.org/2000/svg" data-name="Layer 1" viewBox="0 0 70 87.5" x="0px" y="0px"><path d="M61.875,22.09033H59.25061l1.71082-2.1954a4.86729,4.86729,0,0,0-1.00879-6.94407,5.16735,5.16735,0,0,0-6.21485.19771l-10.29,8.94176H27.70245L16.187,12.08675a5.14819,5.14819,0,0,0-6.147-.13034,4.86857,4.86857,0,0,0-1.00781,6.9304L11.529,22.09033H8.125a5.08439,5.08439,0,0,0-.50781,10.14711l15.04394,1.615.02442,7.44929L13.76172,51.96292a5.46413,5.46413,0,0,0,.83838,7.794c2.60442,2.12518,5.99585,1.04773,8.142-1.17917l.01031,3.15294a5.15682,5.15682,0,0,0,10.28076.67322l1.66748-15.64417a.30991.30991,0,0,1,.59864.00049L36.95313,62.2726a5.15621,5.15621,0,0,0,10.29345-.3847l.01984-4.12463,2.33905,1.916A5.45187,5.45187,0,0,0,57.23438,51.958L47.35126,40.14448l.03058-6.35653L62.3833,32.23744a5.08442,5.08442,0,0,0-.5083-10.14711Zm-5.58838-5.86076a1.135,1.135,0,0,1,1.3335-.02978.83193.83193,0,0,1,.19238,1.22878l-3.63239,4.66176H49.54456Zm-44.106.19039a.83232.83232,0,0,1,.1919-1.21462,1.12454,1.12454,0,0,1,1.26562-.0376l7.96631,6.92259H16.60034Zm6.68457,40.16127a1.45227,1.45227,0,0,1-2.03173-2.05676l5.87237-7.01559.01935,5.91777ZM54.16211,54.5191a1.45234,1.45234,0,0,1-2.02441,2.06457l-4.8465-3.96993.03021-6.2714Zm7.80957-26.25946-15.00147,1.5505a4.04051,4.04051,0,0,0-3.63134,4.013l-.09229,28.04723c-.14085.85378-.46405,1.1136-1.35595,1.10331a1.23588,1.23588,0,0,1-.96-1.12479L39.27686,46.337a4.30114,4.30114,0,0,0-8.55372-.00049L29.05566,61.98017a1.15094,1.15094,0,0,1-1.27734,1.00226,1.25656,1.25656,0,0,1-1.02588-1.2693L26.66113,33.8397a4.05757,4.05757,0,0,0-3.64843-4.031l-14.98389-1.549a1.08635,1.08635,0,0,1,.10742-2.17H61.856A1.12453,1.12453,0,0,1,63,27.1778,1.113,1.113,0,0,1,61.97168,28.25964Z"/><path d="M35,21.9966a9.4983,9.4983,0,1,0-9.5-9.4983A9.51,9.51,0,0,0,35,21.9966ZM35,6.99928a5.499,5.499,0,1,1-5.5,5.499A5.50574,5.50574,0,0,1,35,6.99928Z"/><text x="0" y="85" fill="#000000" font-size="5px" font-weight="bold" font-family="'Helvetica Neue', Helvetica, Arial-Unicode, Arial, Sans-serif">Created by LUTFI GANI AL ACHMAD</text><text x="0" y="90" fill="#000000" font-size="5px" font-weight="bold" font-family="'Helvetica Neue', Helvetica, Arial-Unicode, Arial, Sans-serif">from the Noun Project</text></svg>