<svg xmlns="http://www.w3.org/2000/svg" xmlns:xlink="http://www.w3.org/1999/xlink" version="1.1" x="0px" y="0px" viewBox="0 0 100 125" enable-background="new 0 0 100 100" xml:space="preserve"><g><path d="M78.496,32.72C78.239,17.226,65.555,4.7,50,4.7S21.761,17.226,21.504,32.72c-3.132,0.254-5.604,2.884-5.604,6.081v30.8   c0,3.198,2.474,5.829,5.609,6.08C21.864,84.954,32.368,95.3,41.6,95.3h16.8c9.232,0,19.735-10.346,20.09-19.619   c3.135-0.251,5.609-2.882,5.609-6.08v-30.8C84.1,35.604,81.629,32.974,78.496,32.72z M78.5,71.846v-35.29   c1.028,0.229,1.8,1.148,1.8,2.245v30.8C80.3,70.697,79.528,71.617,78.5,71.846z M58.4,91.501H41.6   c-7.723,0-14.321-8.459-15.927-13.462c3.254,3.829,8.022,6.062,13.126,6.062h22.4c5.104,0,9.872-2.232,13.126-6.062   C72.721,83.042,66.123,91.501,58.4,91.501z M61.2,80.3H38.8c-4.538,0-8.629-2.221-11.095-5.849c3.152,2.631,6.997,4.05,11.095,4.05   h22.4c4.042,0,7.957-1.459,11.116-4.079C69.852,78.067,65.75,80.3,61.2,80.3z M61.2,74.7H38.8c-7.317,0-13.5-6.054-13.5-13.22V33.2   C25.3,19.58,36.38,8.5,50,8.5c13.619,0,24.699,11.08,24.699,24.7v28.28C74.699,68.646,68.518,74.7,61.2,74.7z M21.5,36.556v35.29   c-1.028-0.229-1.8-1.148-1.8-2.245v-30.8C19.7,37.704,20.472,36.784,21.5,36.556z"/><path d="M50,10.301c-12.485,0-22.758,10.27-22.9,22.899c0,1.119,0.781,1.9,1.9,1.9s1.9-0.781,1.9-1.894   c0.135-10.536,8.704-19.106,19.1-19.106c1.119,0,1.9-0.781,1.9-1.9C51.9,11.082,51.119,10.301,50,10.301z"/></g><text x="0" y="115" fill="#000000" font-size="5px" font-weight="bold" font-family="'Helvetica Neue', Helvetica, Arial-Unicode, Arial, Sans-serif">Created by Yorlmar Campos</text><text x="0" y="120" fill="#000000" font-size="5px" font-weight="bold" font-family="'Helvetica Neue', Helvetica, Arial-Unicode, Arial, Sans-serif">from the Noun Project</text></svg>