<svg xmlns="http://www.w3.org/2000/svg" xmlns:xlink="http://www.w3.org/1999/xlink" version="1.1" x="0px" y="0px" viewBox="0 0 100 125" enable-background="new 0 0 100 100" xml:space="preserve"><path d="M84.083,88.704H62.662c-2.574,0-4.68-2.106-4.68-4.68V63.875c0-2.19-0.883-4.238-2.455-5.775  c-1.519-1.43-3.461-2.225-5.545-2.225c-0.106,0-0.23,0.018-0.353,0.018C45.426,56.069,42,59.954,42,64.546v19.478  c0,2.574-2.106,4.68-4.68,4.68H15.899c-2.575,0-4.662-2.087-4.662-4.662V47.31c0-1.289,0.547-2.543,1.501-3.426l34.083-31.363  c1.819-1.66,4.591-1.607,6.34,0l34.101,31.363c0.954,0.883,1.501,2.137,1.501,3.426v36.714  C88.763,86.598,86.657,88.704,84.083,88.704z M49.982,51.354c3.249,0,6.304,1.236,8.671,3.497c2.472,2.384,3.85,5.58,3.85,9.024  v17.241c0,1.61,1.299,2.918,2.909,2.93l15.732,0.116c1.622,0.012,2.945-1.296,2.952-2.917l0.141-32.643  c0.004-0.823-0.339-1.609-0.943-2.166L66.706,31.134l0,0L52.067,17.662c-1.119-1.03-2.84-1.032-3.962-0.006L16.761,46.335  c-0.606,0.554-0.951,1.337-0.952,2.158l-0.047,32.619c-0.002,1.611,1.297,2.922,2.909,2.934l15.737,0.116  c1.618,0.012,2.94-1.291,2.952-2.909l0.12-16.707c0-6.976,5.368-12.874,11.955-13.174C49.629,51.372,49.806,51.354,49.982,51.354z"/><text x="0" y="115" fill="#000000" font-size="5px" font-weight="bold" font-family="'Helvetica Neue', Helvetica, Arial-Unicode, Arial, Sans-serif">Created by Rizalwale</text><text x="0" y="120" fill="#000000" font-size="5px" font-weight="bold" font-family="'Helvetica Neue', Helvetica, Arial-Unicode, Arial, Sans-serif">from the Noun Project</text></svg>