<svg xmlns="http://www.w3.org/2000/svg" version="1.1" viewBox="-5.0 -10.0 110.0 135.0">
 <path d="m49.945 16.504c2.1172 0 3.832 1.7148 3.832 3.832 0 2.1172-1.7148 3.832-3.832 3.832-2.1172 0-3.8359-1.7148-3.8359-3.832 0-2.1172 1.7188-3.832 3.8359-3.832zm0.058594-9.1641c-7.1602 0-12.965 5.8008-12.965 12.961 0.003907 4.7266 2.5234 8.8555 6.2969 11.121l0.003906 5.4883h-6.3281c-3.6797 0-6.6602 2.9805-6.6602 6.6562 0 3.6797 2.9805 6.6602 6.6602 6.6602l6.3281 0.003907v24.512c-6.207-1.5977-11.359-5.3672-14.57-10.277h-0.007812c0.41797-0.39453 0.79297-0.84766 1.1055-1.3594 1.8906-3.0742 0.97656-7.082-2.0273-9.0391l-5.6094-3.4531c-1.0195-0.625-2.1562-0.94922-3.2891-0.98047-0.125-0.003906-0.1875-0.003906-0.1875-0.003906-2.2148 0-4.3984 1.1172-5.6523 3.1641l-3.4258 5.1406-0.003906 0.003906c-2.0273 3.0508-1.1953 7.1719 1.8555 9.1992 1.125 0.74609 2.4062 1.1094 3.668 1.1094h0.003907c0.125 0 0.25-0.003906 0.375-0.011719h0.003906c5.0586 10.055 14.762 17.438 26.262 19.824 0.90625 0.20312 1.7148 0.65625 2.3398 1.2812 0.035156 0.035156 0.10156 0.10547 0.10156 0.10547 0.12891 0.13281 0.23828 0.26172 0.34766 0.41016l0.007813 0.007812c1.2695 1.6953 3.2656 2.668 5.3477 2.668h0.019531c2.2891 0 4.3047-1.1602 5.5-2.9023v-0.003906c0.0625-0.078125 0.11328-0.14062 0.17188-0.19922l0.003907-0.007812c0.027343-0.023438 0.042968-0.042969 0.066406-0.070313l0.011718-0.007812c0.65234-0.65234 1.5-1.1133 2.4531-1.3047 0.023437-0.003906 0.0625-0.011718 0.0625-0.011718 11.426-2.4297 21.062-9.7852 26.094-19.793l0.007812 0.003906c0.14062 0.007813 0.28516 0.011719 0.42969 0.011719h0.003906c1.2617 0 2.543-0.36328 3.668-1.1094 3.0547-2.0273 3.8828-6.1484 1.8555-9.1992l-3.5234-5.293c-1.2656-1.957-3.3984-3.0156-5.5586-3.0156-0.097656 0-0.19141 0.003906-0.28906 0.011719-1.1094 0.042969-2.2109 0.37109-3.1875 0.97266l-5.4609 3.3633c-3.125 1.9219-4.0938 6.0078-2.1758 9.125v0.003907c0.30469 0.49609 0.66797 0.9375 1.0703 1.3242h-0.003906c-3.1992 4.9102-8.3438 8.6836-14.539 10.293v-24.496l6.332 0.003907c3.6758-0.003907 6.6562-2.9844 6.6562-6.6641 0-3.6797-2.9844-6.6562-6.6602-6.6602l-6.3281 0.003906v-5.4844h-0.007812c3.7773-2.2656 6.3086-6.3984 6.3086-11.125 0-7.1055-5.7148-12.875-12.801-12.961z"/>
<text x="0.0" y="117.5" font-size="5.0" font-weight="bold" font-family="Arbeit Regular, Helvetica, Arial-Unicode, Arial, Sans-serif" fill="#000000">Created by Feri Saputra</text><text x="0.0" y="122.5" font-size="5.0" font-weight="bold" font-family="Arbeit Regular, Helvetica, Arial-Unicode, Arial, Sans-serif" fill="#000000">from Noun Project</text></svg>