<svg width="200" height="200" viewBox="0 0 200 200" fill="none" xmlns="http://www.w3.org/2000/svg">
<g clip-path="url(#clip0_12_87)">
<path d="M143.549 95.963L183.939 55.5725L198.992 70.6254C200.323 71.9562 200.89 73.9417 200.568 76.1451C200.247 78.3486 199.063 80.5894 197.278 82.3748L170.351 109.302C168.566 111.087 166.325 112.271 164.121 112.592C161.918 112.914 159.932 112.347 158.602 111.016L143.549 95.963ZM39.269 180.172C37.4836 181.957 35.2427 183.141 33.0393 183.463C30.8358 183.784 28.8503 183.217 27.5196 181.886L7.44902 161.816C6.11826 160.485 5.55123 158.499 5.87269 156.296C6.19415 154.092 7.37774 151.852 9.16311 150.066L103.408 55.8218L70.7929 23.2071L83.7582 10.2418C84.9344 9.06683 86.3193 8.14203 87.7752 7.55943C89.2311 6.97683 90.7071 6.75674 92.0564 6.92106L141.289 12.9225L173.904 45.5372L39.269 180.172Z" fill="black"/>
</g>
<defs>
<clipPath id="clip0_12_87">
<rect width="200" height="200" fill="white"/>
</clipPath>
</defs>
</svg>
