<svg xmlns="http://www.w3.org/2000/svg" xmlns:xlink="http://www.w3.org/1999/xlink" version="1.1" x="0px" y="0px" viewBox="-7.20415 -14.4 158.4913 194.4" enable-background="new 0 0 144.083 144" xml:space="preserve"><g><path d="M56.625,121.065C56.625,121.065,56.625,121.065,56.625,121.065c-1.265,0-2.453-0.493-3.347-1.388l-0.337-0.337   l-9.147-18.03l-0.957-0.957l-18.03-9.146l-0.338-0.339c-1.843-1.844-1.843-4.844,0-6.687l6.308-6.309l15.819,4.094   c0.717-1.092,1.555-2.121,2.505-3.076l12.781-13.865l-36.266-19.96l-0.301-0.302c-1-0.999-1.55-2.328-1.551-3.741   c0-1.414,0.55-2.744,1.55-3.743l9.437-9.438l48.341,14.47l14.056-15.023c2.809-2.808,6.492-4.354,10.374-4.354   c3.645,0,7.041,1.39,9.563,3.913c2.626,2.626,4.014,6.164,3.907,9.961c-0.104,3.734-1.648,7.278-4.349,9.978L101.74,60.73   l14.566,48.669l-9.438,9.437c-0.999,1-2.328,1.551-3.741,1.551c-1.414,0-2.743-0.551-3.743-1.552l-0.302-0.301l-0.205-0.374   L78.97,81.991L65.042,94.832c-0.914,0.908-1.897,1.715-2.94,2.412l4.174,16.129l-6.308,6.308   C59.075,120.573,57.888,121.065,56.625,121.065z M30.015,87.122l16.389,8.313l2.309,2.309l8.316,16.392l2.579-2.579l-4.496-17.374   l2.19-1.079c1.287-0.634,2.479-1.494,3.543-2.559l0.088-0.085l19.603-18.071l22.824,41.471l6.172-6.172L94.925,58.889   l17.547-16.415c1.54-1.542,2.461-3.638,2.522-5.833c0.06-2.132-0.705-4.103-2.152-5.551c-1.39-1.39-3.279-2.155-5.321-2.155   c-2.264,0-4.428,0.91-6.099,2.564L84.933,49.127L36.46,34.618l-6.172,6.172l41.195,22.673L53.388,83.089   c-1.101,1.102-1.98,2.331-2.615,3.654l-1.067,2.227l-17.112-4.428L30.015,87.122z"/></g><text x="0.0" y="169.20000000000002" font-size="7.2" font-weight="bold" font-family="Arbeit Regular, Helvetica, Arial-Unicode, Arial, Sans-serif" fill="#000000">Created by Rafiico Creative Studio</text><text x="0.0" y="176.4" font-size="7.2" font-weight="bold" font-family="Arbeit Regular, Helvetica, Arial-Unicode, Arial, Sans-serif" fill="#000000">from Noun Project</text></svg>