<svg xmlns="http://www.w3.org/2000/svg" version="1.1" viewBox="-5.0 -10.0 110.0 135.0">
 <path d="m50.004 25.289c2.1836 0.10156 4.4766-0.27344 6.7227-1.1094 2.6719-0.99219 5.2734-2.6367 7.5391-4.9023s3.9102-4.8672 4.9023-7.5391c0.83594-2.2461 1.2109-4.5391 1.1094-6.7227-2.1836-0.10156-4.4766 0.27344-6.7227 1.1094-2.6719 0.99219-5.2734 2.6367-7.5391 4.9023s-3.9102 4.8672-4.9023 7.5391c-0.83594 2.2461-1.2109 4.5391-1.1094 6.7227zm0.78516 67.145c2.9805 1.7422 6.168 2.6406 9.3086 2.5547 2.9688-0.078125 5.918-1.043 8.6289-3.0117 6.7578-4.9023 12.133-11.328 15.762-18.652 3.5781-7.2305 5.4531-15.328 5.2656-23.695-0.76562-6.3672-2.3633-10.945-4.6016-14.227-2.1836-3.1992-5.0039-5.1836-8.2695-6.4219-3.4297-1.3008-7.0859-2.0742-11.289-1.7383-4.2539 0.33984-9.0938 1.8164-14.852 5.0352-0.48047 0.26953-1.0469 0.24609-1.4922-0.011719-5.75-3.207-10.586-4.6836-14.836-5.0234-4.2031-0.33594-7.8633 0.4375-11.289 1.7383-3.2695 1.2383-6.0898 3.2227-8.2695 6.4219-2.2383 3.2812-3.8359 7.8555-4.6016 14.227-0.1875 8.3633 1.6875 16.465 5.2656 23.695 3.625 7.3242 9.0039 13.754 15.762 18.652 2.7109 1.9648 5.6602 2.9297 8.6289 3.0117 3.1484 0.082031 6.3438-0.81641 9.3281-2.5664 0.49609-0.29297 1.0938-0.26953 1.5547 0.011719z" fill-rule="evenodd"/>
<text x="0.0" y="117.5" font-size="5.0" font-weight="bold" font-family="Arbeit Regular, Helvetica, Arial-Unicode, Arial, Sans-serif" fill="#000000">Created by Xin Corleone</text><text x="0.0" y="122.5" font-size="5.0" font-weight="bold" font-family="Arbeit Regular, Helvetica, Arial-Unicode, Arial, Sans-serif" fill="#000000">from Noun Project</text></svg>