<?xml version="1.0" standalone="no"?><!DOCTYPE svg PUBLIC "-//W3C//DTD SVG 1.1//EN" "http://www.w3.org/Graphics/SVG/1.1/DTD/svg11.dtd"><svg t="1768375550438" class="icon" viewBox="0 0 1024 1024" version="1.1" xmlns="http://www.w3.org/2000/svg" p-id="4944" data-darkreader-inline-fill="" xmlns:xlink="http://www.w3.org/1999/xlink" width="200" height="200"><path d="M243.0192 931.421645l520.412788-91.855465a61.287732 61.287732 0 0 1 70.918661 49.677323 60.183792 60.183792 0 0 1 0.875539 13.589889l-0.723271 6.813978-10.163866 62.924609a61.211599 61.211599 0 0 1-54.854424 51.161933l-5.595836 0.266469H240.392583a40.807732 40.807732 0 0 1-40.807733-40.807733A52.532342 52.532342 0 0 1 237.727898 932.639786l5.291302-1.218141 520.412788-91.855465zM483.602099 0.000381a493.61368 493.61368 0 0 1 482.155539 388.016059H656.007155a208.949294 208.949294 0 0 0-343.439703-25.16223L203.924478 282.799488a332.171896 332.171896 0 0 0 0 421.286543l108.642974-80.054721a208.987361 208.987361 0 0 0 343.47777-25.200297l309.674349 0.076133a492.091004 492.091004 0 0 1-119.30171 229.048625 101.90513 101.90513 0 0 0-82.224535-29.654126l-7.879851 1.10394-520.374721 91.855465a92.274201 92.274201 0 0 0-29.387658 10.430334 488.284312 488.284312 0 0 1-89.495316-77.884907 40.845799 40.845799 0 0 1 6.090706-60.183791l15.036431-11.039406a413.635093 413.635093 0 0 1-0.038067-518.242974l-14.998364-11.077472a40.807732 40.807732 0 0 1-9.25026-56.224833l3.159554-3.958959A492.205204 492.205204 0 0 1 483.602099 0.000381m-7.994052 366.16565a127.295762 127.295762 0 1 1-127.257695 127.295762 127.295762 127.295762 0 0 1 127.257695-127.295762m497.230037 62.620075a496.849368 496.849368 0 0 1 0 129.313308l-298.482676-0.038067a210.510037 210.510037 0 0 0 3.57829-116.865427l-3.57829-12.371748zM344.581727 140.65763a40.807732 40.807732 0 0 0 36.506171 73.012342 132.701264 132.701264 0 0 1 126.724759 0 40.807732 40.807732 0 1 0 36.506171-73.012342 214.278662 214.278662 0 0 0-199.737101 0" fill="#404853" p-id="4945" data-darkreader-inline-fill="" style="--darkreader-inline-fill: var(--darkreader-background-404853, #3d454f);"></path></svg>