<svg version="1.0" xmlns="http://www.w3.org/2000/svg" width="800.000000" height="800.000000" viewBox="0 0 800.000000 800.000000" preserveAspectRatio="xMidYMid meet">
  <metadata>
    <rdf:RDF xmlns:rdf="http://www.w3.org/1999/02/22-rdf-syntax-ns#" xmlns:rdfs="http://www.w3.org/2000/01/rdf-schema#" xmlns:dc="http://purl.org/dc/elements/1.1/">
      <rdf:Description dc:format="image/svg+xml" dc:Label="1" dc:ContentProducer="001191330110MACRLGPT8B00000" dc:ProduceID="355640831" dc:ReservedCode1="5kiN+/5J9m5sgCb0vxCbTGWvrScX6FU+ZwFjqvhqF0I=" dc:ContentPropagator="001191330110MACRLGPT8B00000" dc:PropagateID="355640831" dc:ReservedCode2="5kiN+/5J9m5sgCb0vxCbTGWvrScX6FU+ZwFjqvhqF0I="/>
    </rdf:RDF>
  </metadata>
  <g transform="translate(0.000000,800.000000) scale(0.100000,-0.100000)" fill="#000000" stroke="none">
    <path d="M3283 6106 c-44 -20 -60 -57 -68 -158 -4 -49 -11 -88 -16 -88 -4 0 -37 20 -73 45 -78 55 -131 78 -162 71 -63 -16 -131 -113 -120 -172 7 -36 31 -57 161 -144 127 -85 254 -183 334 -259 l75 -70 -65 -47 c-35 -26 -90 -74 -122 -106 -32 -32 -63 -56 -68 -53 -5 4 -23 27 -41 53 -66 97 -231 303 -265 331 -73 60 -158 62 -302 4 -152 -60 -256 -141 -309 -241 -26 -48 -32 -72 -32 -121 0 -57 3 -65 57 -143 125 -183 159 -236 181 -284 l24 -51 -50 -65 c-104 -138 -143 -313 -137 -618 7 -334 83 -680 218 -990 226 -521 564 -816 996 -871 157 -20 371 11 513 74 65 29 163 94 221 146 57 52 155 181 223 296 32 55 115 176 185 270 321 433 431 652 480 955 31 197 -24 460 -133 632 -19 29 -37 58 -41 64 -10 17 139 52 249 59 49 4 110 13 137 22 200 63 300 365 194 587 -61 128 -155 197 -279 204 -105 6 -412 -64 -602 -137 l-79 -30 -61 43 c-138 98 -277 144 -459 153 l-119 6 7 26 c4 14 9 135 12 269 l5 243 -128 -3 -129 -3 -6 -200 c-5 -188 -21 -329 -39 -349 -5 -4 -20 11 -35 34 -15 24 -59 74 -97 111 l-70 69 17 169 c18 188 13 222 -39 256 -36 24 -104 29 -143 11z m-471 -973 c58 -76 124 -171 147 -210 l43 -73 -12 -52 c-17 -70 -17 -70 -52 -52 -49 25 -120 44 -170 44 l-46 0 -40 73 c-22 39 -74 121 -115 182 -73 106 -74 110 -58 132 19 27 144 93 177 93 17 0 46 -31 126 -137z m1298 57 c61 -11 170 -49 170 -59 -1 -3 -33 -27 -73 -52 -92 -59 -212 -150 -302 -229 -46 -40 -84 -64 -113 -72 -56 -14 -115 -58 -149 -110 -38 -60 -38 -140 0 -222 l27 -59 -109 -112 c-97 -99 -111 -118 -126 -169 -20 -68 -15 -119 20 -193 47 -103 164 -197 303 -244 34 -11 62 -26 62 -32 0 -22 -48 -224 -65 -273 -28 -82 -90 -205 -144 -284 l-51 -75 28 -23 c15 -13 52 -41 82 -62 30 -22 67 -49 82 -60 l26 -20 20 27 c150 214 249 466 283 718 12 88 13 91 59 136 27 26 54 65 63 90 9 24 26 70 38 101 53 147 267 403 422 506 l39 26 19 -25 c32 -39 106 -200 120 -259 8 -30 14 -104 13 -165 -1 -258 -117 -500 -458 -954 -60 -79 -140 -198 -180 -264 -117 -197 -231 -302 -379 -349 -42 -13 -103 -21 -187 -25 -106 -4 -139 -2 -215 16 -157 38 -269 105 -399 241 -203 213 -359 550 -435 940 -97 501 -54 833 119 903 39 16 84 13 116 -8 77 -50 114 -232 79 -380 -18 -75 -7 -123 35 -159 40 -33 91 -42 137 -25 82 32 102 103 113 409 9 256 23 328 90 464 107 221 299 355 550 385 93 12 212 12 270 1z m1162 -57 c31 -52 34 -124 8 -177 -40 -84 -99 -70 -120 29 -27 132 57 244 112 148z m-390 -97 c-2 -30 1 -79 8 -110 6 -31 11 -59 11 -63 0 -3 -26 -17 -58 -30 -193 -78 -377 -204 -538 -368 -163 -165 -269 -318 -324 -469 l-27 -71 -48 -3 c-39 -3 -62 3 -111 27 -34 17 -70 40 -80 51 -18 20 -16 22 84 125 116 119 151 180 150 260 0 28 -6 67 -13 87 l-13 37 45 38 c26 21 73 62 107 92 143 128 331 253 511 338 92 43 266 111 289 113 6 0 9 -22 7 -54z"/>
  </g>
</svg>