<svg width="182" height="181" viewBox="0 0 182 181" fill="none" xmlns="http://www.w3.org/2000/svg">
<path d="M90.725 0C40.683 0 0 40.5552 0 90.44C0 140.325 40.683 180.88 90.725 180.88C140.767 180.88 181.45 140.325 181.45 90.44C181.45 40.5552 140.767 0 90.725 0ZM49.66 76.7312C48.705 80.1584 45.076 82.2528 41.638 81.3008C38.2 80.3488 36.099 76.7312 37.054 73.304C39.919 63.2128 49.278 55.9776 59.783 55.9776C70.479 55.9776 79.838 63.0224 82.703 73.304C83.658 76.7312 81.748 80.3488 78.119 81.3008C77.546 81.4912 76.973 81.4912 76.4 81.4912C73.535 81.4912 70.861 79.5872 70.097 76.7312C68.76 72.1616 64.558 68.9248 59.783 68.9248C55.199 68.9248 50.997 72.1616 49.66 76.7312ZM124.723 117.286C120.903 132.328 107.151 143.562 90.725 143.562C74.108 143.562 60.356 132.138 56.727 116.715C55.772 112.717 59.21 108.718 63.412 108.718H118.229C122.622 108.528 125.869 112.907 124.723 117.286ZM139.812 81.3008C139.239 81.4912 138.666 81.4912 138.093 81.4912C135.228 81.4912 132.554 79.5872 131.79 76.7312C130.453 72.1616 126.251 68.9248 121.476 68.9248C116.701 68.9248 112.499 72.1616 111.162 76.7312C110.207 80.1584 106.578 82.2528 103.14 81.3008C99.702 80.3488 97.601 76.7312 98.556 73.304C101.421 63.2128 110.78 55.9776 121.476 55.9776C131.981 55.9776 141.34 63.0224 144.205 73.304C145.16 76.7312 143.25 80.3488 139.812 81.3008Z" fill="black"/>
</svg>
