<svg width="168" height="200" viewBox="0 0 168 200" fill="none" xmlns="http://www.w3.org/2000/svg">
<path d="M53.6513 0.541721C51.4512 1.54326 50.6512 3.39611 50.2512 8.45388C50.0512 10.9077 49.7012 12.8607 49.4512 12.8607C49.2512 12.8607 47.6011 11.8591 45.8011 10.6072C41.901 7.85296 39.2509 6.70119 37.7009 7.05173C34.5508 7.85296 31.1507 12.7104 31.7008 15.665C32.0508 17.4677 33.2508 18.5194 39.7509 22.876C46.1011 27.1326 52.4512 32.0401 56.4513 35.846L60.2014 39.3514L56.9514 41.705C55.2013 43.007 52.4512 45.4107 50.8512 47.0131C49.2512 48.6156 47.7011 49.8175 47.4511 49.6672C47.2011 49.4669 46.3011 48.3151 45.4011 47.0131C42.101 42.1557 33.8508 31.8398 32.1508 30.4377C28.5007 27.4331 24.2506 27.3329 17.0504 30.2374C9.45022 33.242 4.2501 37.2982 1.60004 42.3059C0.300007 44.7096 0 45.9115 0 48.3652C0 51.2196 0.150004 51.6202 2.85007 55.5262C9.10022 64.6903 10.8003 67.3444 11.9003 69.7481L13.1003 72.302L10.6003 75.557C5.40013 82.4676 3.45008 91.2311 3.75009 106.505C4.1001 123.23 7.90019 140.557 14.6503 156.081C25.9506 182.171 42.851 196.944 64.4515 199.698C72.3017 200.699 83.002 199.147 90.1021 195.992C93.3522 194.54 98.2523 191.285 101.152 188.681C104.002 186.077 108.903 179.617 112.303 173.858C113.903 171.104 118.053 165.045 121.553 160.337C137.603 138.654 143.103 127.687 145.553 112.514C147.103 102.649 144.353 89.4784 138.903 80.8652C137.953 79.4129 137.053 77.9607 136.853 77.6603C136.353 76.8089 143.803 75.0563 149.304 74.7057C151.754 74.5054 154.804 74.0547 156.154 73.604C166.154 70.4492 171.154 55.3259 165.854 44.2088C162.804 37.799 158.104 34.3437 151.904 33.9931C146.653 33.6927 131.303 37.1981 121.803 40.8537L117.853 42.356L114.803 40.2027C107.903 35.2951 100.952 32.9916 91.8522 32.5409L85.902 32.2404L86.252 30.9384C86.452 30.2374 86.7021 24.1781 86.8521 17.4677L87.1021 5.29903L80.7019 5.44926L74.2518 5.59949L73.9518 15.6149C73.7017 25.0294 72.9017 32.0902 72.0017 33.0918C71.7517 33.2921 71.0017 32.5409 70.2517 31.3891C69.5016 30.1873 67.3016 27.6834 65.4016 25.8306L61.9015 22.3753L62.7515 13.9123C63.6515 4.4978 63.4015 2.79518 60.8014 1.09257C59.0014 -0.10928 55.6013 -0.359664 53.6513 0.541721ZM30.1007 49.2666C33.0008 53.0725 36.3009 57.8298 37.4509 59.7828L39.6009 63.4384L39.0009 66.0424C38.1509 69.5478 38.1509 69.5478 36.4009 68.6464C33.9508 67.3945 30.4007 66.443 27.9007 66.443H25.6006L23.6006 62.7874C22.5005 60.8344 19.9005 56.7281 17.8504 53.6734C14.2003 48.3652 14.1503 48.1649 14.9504 47.0632C15.9004 45.7111 22.1505 42.4061 23.8006 42.4061C24.6506 42.4061 26.1006 43.9585 30.1007 49.2666ZM95.0023 46.4122C98.0523 46.9631 103.502 48.866 103.502 49.3668C103.452 49.517 101.852 50.7188 99.8524 51.9708C95.2523 54.9253 89.2521 59.4823 84.752 63.4384C82.452 65.4415 80.5519 66.6433 79.1019 67.0439C76.3018 67.745 73.3517 69.9484 71.6517 72.5524C69.7517 75.557 69.7517 79.5632 71.6517 83.6695L73.0017 86.624L67.5516 92.2327C62.7015 97.1903 62.0015 98.1417 61.2515 100.696C60.2514 104.101 60.5014 106.655 62.2515 110.361C64.6015 115.518 70.4517 120.226 77.4018 122.579C79.1019 123.13 80.5019 123.881 80.5019 124.182C80.5019 125.283 78.1019 135.399 77.2518 137.853C75.8518 141.959 72.7517 148.119 70.0517 152.075L67.5016 155.83L68.9016 156.982C69.6517 157.633 71.5017 159.035 73.0017 160.087C74.5018 161.189 76.3518 162.541 77.1018 163.092L78.4019 164.093L79.4019 162.741C86.9021 152.025 91.8522 139.405 93.5522 126.786C94.1522 122.379 94.2022 122.229 96.5023 119.975C97.8523 118.673 99.2024 116.72 99.6524 115.468C100.102 114.267 100.952 111.963 101.552 110.411C104.202 103.049 114.903 90.2296 122.653 85.0716L124.603 83.7696L125.553 85.0216C127.153 86.9746 130.853 95.037 131.553 97.9915C131.953 99.4938 132.253 103.2 132.203 106.254C132.153 119.174 126.353 131.293 109.303 154.028C106.303 157.984 102.302 163.943 100.302 167.248C94.4522 177.113 88.7521 182.371 81.3519 184.725C79.2519 185.376 76.2018 185.776 72.0017 185.977C66.7016 186.177 65.0515 186.077 61.2515 185.176C53.4013 183.273 47.8011 179.917 41.301 173.107C31.1507 162.441 23.3506 145.565 19.5505 126.035C14.7003 100.946 16.8504 84.3205 25.5006 80.8151C27.4507 80.0139 29.7007 80.1641 31.3007 81.2157C35.1508 83.7196 37.0009 92.8336 35.2508 100.245C34.3508 104.001 34.9008 106.404 37.0009 108.207C39.0009 109.86 41.551 110.31 43.851 109.459C47.9511 107.857 48.9512 104.301 49.5012 88.9776C49.9512 76.1579 50.6512 72.5524 54.0013 65.7419C59.3514 54.6749 68.9516 47.9646 81.5019 46.4623C86.152 45.8614 92.1022 45.8614 95.0023 46.4122ZM153.104 49.2666C154.654 51.8706 154.804 55.4762 153.504 58.1302C151.504 62.3367 148.554 61.6356 147.503 56.678C146.153 50.0678 150.354 44.4592 153.104 49.2666ZM133.603 54.1241C133.503 55.6264 133.653 58.0802 134.003 59.6325C134.303 61.1849 134.553 62.5871 134.553 62.7874C134.553 62.9376 133.253 63.6387 131.653 64.2897C122.003 68.1957 112.803 74.5054 104.752 82.718C96.6023 90.9807 91.3022 98.6425 88.5521 106.204L87.2021 109.76L84.802 109.91C82.852 110.06 81.7019 109.76 79.2519 108.558C77.5518 107.706 75.7518 106.555 75.2518 106.004C74.3518 105.002 74.4518 104.902 79.4519 99.7442C85.252 93.785 87.0021 90.7303 86.9521 86.7242C86.9521 85.322 86.6521 83.369 86.302 82.3675L85.652 80.5146L87.9021 78.6117C89.2021 77.5601 91.5522 75.5069 93.2522 74.0046C100.402 67.5948 109.803 61.3352 118.803 57.0786C123.403 54.9253 132.103 51.5201 133.253 51.4199C133.553 51.4199 133.703 52.5216 133.603 54.1241Z" fill="black"/>
</svg>
