<svg width="176" height="188" viewBox="0 0 176 188" fill="none" xmlns="http://www.w3.org/2000/svg">
<path d="M163.317 75.4457L158.568 58.6231C157.081 55.3431 155.491 52.5894 151.315 52.2496C147.447 26.9526 122.224 0 87.55 0C52.6989 0 27.365 26.9588 23.4922 52.2579C19.2198 52.6765 17.6727 56.0994 16.4779 58.7702L11.7811 75.4477C5.21592 75.8559 0 81.3571 0 88.06V111.266C0 118.237 5.63616 123.908 12.566 123.908H16.0886L18.781 134.742C19.8419 138.741 22.6806 141.045 26.8109 141.29C37.1521 172.533 49.475 187.723 64.478 187.723H110.622C125.625 187.723 137.95 172.533 148.287 141.29C152.419 141.043 155.258 138.741 156.321 134.726L159.011 123.908H162.532C169.462 123.908 175.1 118.239 175.1 111.266V88.06C175.1 81.3571 169.884 75.8559 163.317 75.4457ZM31.0298 116.032L25.6058 83.2944H149.494L144.068 116.032H31.0298Z" fill="black"/>
<path d="M76.014 186.682H99.086C101.391 186.682 103 185.064 103 182.748C103 180.431 101.391 178.813 99.086 178.813H76.014C73.7089 178.813 72.1 180.431 72.1 182.748C72.1 185.064 73.7089 186.682 76.014 186.682Z" fill="black"/>
</svg>
