<svg width="138" height="183" viewBox="0 0 138 183" fill="none" xmlns="http://www.w3.org/2000/svg">
<path d="M126.444 56.4883C125.925 25.2524 100.303 0 68.882 0C37.4609 0 11.8392 25.2524 11.3201 56.4883C4.99344 57.0004 0 62.3025 0 68.7476V130.84C0 137.288 4.99748 142.592 11.3302 143.098C12.0473 161.792 33.2654 182.65 51.914 182.65H85.85C104.499 182.65 125.715 161.792 126.432 143.098C132.764 142.592 137.762 137.288 137.762 130.84V68.7476C137.764 62.3025 132.773 57.0004 126.444 56.4883ZM91.506 152.41H46.258C37.0912 152.41 28.8274 147.932 23.8461 140.618C30.2131 145.922 37.98 148.783 46.258 148.783H91.506C99.6708 148.783 107.579 145.841 113.96 140.56C108.983 147.908 100.697 152.41 91.506 152.41ZM91.506 141.12H46.258C31.4777 141.12 18.988 128.915 18.988 114.468V57.456C18.988 29.9981 41.3696 7.6608 68.882 7.6608C96.3924 7.6608 118.774 29.9981 118.774 57.456V114.468C118.774 128.915 106.288 141.12 91.506 141.12Z" fill="black"/>
</svg>
