<svg width="165" height="165" viewBox="0 0 165 165" fill="none" xmlns="http://www.w3.org/2000/svg">
<path d="M154.434 164.725H109.021C103.564 164.725 99.0994 160.243 99.0994 154.766V111.889C99.0994 107.228 97.2274 102.87 93.8948 99.5993C90.6745 96.5563 86.5575 94.8645 82.1394 94.8645C81.9147 94.8645 81.6518 94.9029 81.391 94.9029C72.4807 95.2774 65.2176 103.545 65.2176 113.316V154.766C65.2176 160.243 60.7528 164.725 55.296 164.725H9.88344C4.42444 164.725 0 160.284 0 154.804V76.6382C0 73.8952 1.15964 71.2267 3.18212 69.3477L75.4381 2.60724C79.2944 -0.925242 85.171 -0.812459 88.8789 2.60724L161.173 69.3477C163.195 71.2267 164.355 73.8952 164.355 76.6382V154.766C164.355 160.243 159.89 164.725 154.434 164.725Z" fill="black"/>
</svg>
