<svg width="163" height="190" viewBox="0 0 163 190" fill="none" xmlns="http://www.w3.org/2000/svg">
<path d="M81.5 36.3616C85.1398 36.3616 88.6979 35.2954 91.7243 33.2976C94.7507 31.2999 97.1095 28.4604 98.5024 25.1383C99.8953 21.8162 100.26 18.1607 99.5496 14.6339C98.8395 11.1072 97.0868 7.86768 94.513 5.32505C91.9393 2.78241 88.6602 1.05086 85.0903 0.349347C81.5204 -0.352163 77.8201 0.00787759 74.4574 1.38394C71.0946 2.76 68.2204 5.09029 66.1983 8.08011C64.1761 11.0699 63.0968 14.585 63.0968 18.1808C63.0968 23.0027 65.0357 27.627 68.487 31.0366C71.9382 34.4462 76.6192 36.3616 81.5 36.3616Z" fill="black"/>
<path d="M152.484 44.1534H131.741L149.618 35.2708C150.856 34.6587 151.959 33.8113 152.865 32.7771C153.77 31.7428 154.46 30.5422 154.895 29.244C155.329 27.9459 155.501 26.5757 155.398 25.212C155.296 23.8484 154.922 22.5181 154.298 21.2975C153.042 18.8393 150.849 16.9743 148.202 16.1123C145.555 15.2503 142.669 15.4618 140.18 16.7004L84.944 44.1534H78.3714L23.1355 16.7004C20.646 15.4618 17.7607 15.2503 15.1134 16.1123C12.4662 16.9743 10.2736 18.8393 9.01758 21.2975C7.76386 23.7569 7.54976 26.6074 8.42231 29.2227C9.29486 31.8379 11.1827 34.0039 13.671 35.2448L31.5484 44.1534H10.5161C7.72708 44.1534 5.05226 45.248 3.0801 47.1963C1.10795 49.1446 0 51.7871 0 54.5425C0 57.2978 1.10795 59.9403 3.0801 61.8886C5.05226 63.837 7.72708 64.9315 10.5161 64.9315H57.8387V95.3454L17.3779 157.342C16.6413 158.498 16.1426 159.786 15.9104 161.132C15.6782 162.479 15.7171 163.857 16.0248 165.189C16.3324 166.521 16.9029 167.779 17.7035 168.893C18.5041 170.007 19.5191 170.953 20.6905 171.679L22.8989 173.055C24.5745 174.103 26.5158 174.661 28.4987 174.666C29.2772 174.664 30.0532 174.577 30.8123 174.406C32.1598 174.104 33.4339 173.542 34.5616 172.754C35.6894 171.965 36.6487 170.964 37.3848 169.809L57.8387 137.655V179.211C57.8387 181.966 58.9467 184.609 60.9188 186.557C62.891 188.505 65.5658 189.6 68.3548 189.6H73.6129C75.106 189.598 76.5816 189.282 77.9416 188.673C79.3015 188.064 80.5145 187.176 81.5 186.068C82.4855 187.176 83.6985 188.064 85.0584 188.673C86.4184 189.282 87.894 189.598 89.3871 189.6H94.6452C97.4342 189.6 100.109 188.505 102.081 186.557C104.053 184.609 105.161 181.966 105.161 179.211V137.655L125.589 169.705C126.325 170.86 127.284 171.861 128.412 172.65C129.54 173.439 130.814 174 132.161 174.302C132.929 174.475 133.714 174.562 134.501 174.562C136.475 174.553 138.407 173.994 140.075 172.952L142.31 171.575C143.482 170.847 144.498 169.898 145.298 168.781C146.099 167.665 146.668 166.403 146.973 165.068C147.279 163.734 147.314 162.353 147.078 161.004C146.841 159.656 146.338 158.368 145.596 157.212L105.161 95.3454V64.9315H152.484C155.273 64.9315 157.948 63.837 159.92 61.8886C161.892 59.9403 163 57.2978 163 54.5425C163 51.7871 161.892 49.1446 159.92 47.1963C157.948 45.248 155.273 44.1534 152.484 44.1534Z" fill="black"/>
</svg>
