<svg width="171" height="171" viewBox="0 0 171 171" fill="none" xmlns="http://www.w3.org/2000/svg">
<path d="M58.4042 170.619C56.2013 170.619 54.1325 169.762 52.5757 168.205L51.9888 167.619L36.06 136.271L34.3935 134.607L2.99568 118.705L2.40708 118.116C-0.80236 114.91 -0.80236 109.694 2.40708 106.489L13.392 95.5198L40.9395 102.638C42.1881 100.739 43.6474 98.9502 45.3018 97.2898L67.5588 73.1829L4.40449 38.4788L3.88032 37.9537C2.1389 36.2168 1.18112 33.9061 1.17938 31.4493C1.17938 28.9908 2.13716 26.6784 3.87858 24.9414L20.3124 8.53172L104.494 33.6905L128.972 7.57023C133.863 2.688 140.277 0 147.037 0C153.385 0 159.299 2.41677 163.69 6.80347C168.263 11.3692 170.681 17.5207 170.494 24.1225C170.313 30.6147 167.624 36.7766 162.921 41.4711L136.968 65.7153L162.334 150.335L145.898 166.743C144.159 168.482 141.844 169.44 139.384 169.44C136.921 169.44 134.607 168.482 132.866 166.741L132.34 166.218L131.983 165.568L97.3162 102.681L73.0617 125.008C71.4701 126.587 69.7583 127.99 67.942 129.202L75.2106 157.245L64.2258 168.212C62.6707 169.763 60.6036 170.619 58.4042 170.619Z" fill="black"/>
</svg>
