<svg width="156" height="188" viewBox="0 0 156 188" fill="none" xmlns="http://www.w3.org/2000/svg">
<path d="M77.5625 0C98.1334 0 117.862 8.17174 132.407 22.7175C146.953 37.2633 155.125 56.9916 155.125 77.5625C155.125 136.875 104.937 187.063 77.5625 187.063C50.1875 187.063 0 136.875 0 77.5625C0 56.9916 8.17174 37.2633 22.7175 22.7175C37.2633 8.17174 56.9916 0 77.5625 0ZM127.75 91.25C121.992 91.2498 116.298 92.4607 111.038 94.804C105.779 97.1472 101.07 100.571 97.2196 104.852C93.3688 109.133 90.4614 114.176 88.6862 119.653C86.9111 125.131 86.3078 130.921 86.9156 136.647C93.0058 137.294 99.1635 136.57 104.938 134.528C110.712 132.487 115.956 129.18 120.287 124.85C124.618 120.519 127.925 115.274 129.966 109.5C132.007 103.726 132.731 97.5683 132.084 91.4781C130.645 91.3268 129.198 91.2507 127.75 91.25ZM27.375 91.25C25.915 91.25 24.4641 91.323 23.0406 91.4781C22.3939 97.5683 23.1178 103.726 25.159 109.5C27.2003 115.274 30.5074 120.519 34.838 124.85C39.1686 129.18 44.4131 132.487 50.1873 134.528C55.9615 136.57 62.1192 137.294 68.2094 136.647C68.8172 130.921 68.2139 125.131 66.4387 119.653C64.6636 114.176 61.7562 109.133 57.9054 104.852C54.0546 100.571 49.3465 97.1472 44.0867 94.804C38.8269 92.4607 33.1331 91.2498 27.375 91.25Z" fill="black"/>
</svg>
