<svg width="185" height="191" viewBox="0 0 185 191" fill="none" xmlns="http://www.w3.org/2000/svg">
<path d="M92.3712 20.5459C97.0972 20.5459 100.925 24.3905 100.925 29.1373C100.925 33.884 97.0972 37.7286 92.3712 37.7286C87.6453 37.7286 83.8088 33.884 83.8088 29.1373C83.8088 24.3905 87.6455 20.5459 92.3712 20.5459ZM92.502 0C76.5192 0 63.5618 13.0054 63.5618 29.0586C63.5706 39.6556 69.1945 48.9126 77.6176 53.9919L77.6264 74.9057H63.5009C55.2872 74.9057 48.6342 81.588 48.6342 89.8289C48.6342 98.0788 55.2872 104.761 63.5009 104.761L77.6264 104.77L77.6264 151.117C63.7712 147.535 52.271 139.083 45.1035 128.076H45.0861C46.0191 127.191 46.8561 126.175 47.5538 125.028C51.7739 118.136 49.7336 109.15 43.0285 104.762L30.5073 97.0204C28.2316 95.6191 25.6942 94.8922 23.1654 94.8221C22.8864 94.8134 22.7469 94.8134 22.7469 94.8134C17.803 94.8134 12.9289 97.3181 10.1299 101.907L2.48294 113.433L2.47422 113.441C-2.05108 120.281 -0.193905 129.521 6.61603 134.066C9.12723 135.739 11.9871 136.553 14.8037 136.553H14.8124C15.0914 136.553 15.3704 136.544 15.6494 136.527H15.6582C26.9499 159.07 48.6096 175.623 74.2796 180.972C76.3025 181.428 78.1074 182.444 79.5025 183.845C79.581 183.924 79.7292 184.081 79.7292 184.081C80.0169 184.379 80.2611 184.668 80.5052 185.001L80.5227 185.018C83.3564 188.819 87.8121 191 92.4597 191H92.5033C97.613 191 102.112 188.399 104.78 184.493V184.484C104.92 184.309 105.033 184.169 105.164 184.038L105.173 184.02C105.234 183.968 105.269 183.924 105.321 183.862L105.347 183.845C106.803 182.382 108.695 181.349 110.823 180.92C110.875 180.911 110.962 180.894 110.962 180.894C136.467 175.446 157.976 158.955 169.209 136.518L169.226 136.526C169.54 136.544 169.863 136.553 170.185 136.553H170.194C173.01 136.553 175.871 135.738 178.382 134.065C185.2 129.52 187.049 120.281 182.524 113.441L174.659 101.574C171.834 97.1863 167.073 94.8129 162.251 94.8129C162.033 94.8129 161.824 94.8216 161.606 94.8391C159.129 94.9355 156.671 95.6711 154.491 97.0198L142.301 104.56C135.325 108.869 133.163 118.03 137.444 125.019V125.027C138.124 126.14 138.935 127.129 139.833 127.996H139.824C132.683 139.005 121.2 147.465 107.371 151.073L107.371 104.762L121.505 104.771C129.71 104.762 136.363 98.0799 136.363 89.83C136.363 81.5802 129.701 74.9068 121.496 74.8979L107.371 74.9066L107.371 54.0015H107.353C115.785 48.922 121.435 39.6563 121.435 29.0592C121.435 13.1287 108.679 0.193491 92.861 0.000678859L92.502 0Z" fill="black"/>
</svg>
