<svg width="200" height="200" viewBox="0 0 200 200" fill="none" xmlns="http://www.w3.org/2000/svg">
<path fill-rule="evenodd" clip-rule="evenodd" d="M101.07 184.879C107.029 188.364 113.402 190.161 119.681 189.989C125.616 189.832 131.513 187.903 136.933 183.965C150.444 174.16 161.191 161.308 168.447 146.659C175.6 132.197 179.349 116.001 178.974 99.2664C177.444 86.5313 174.249 77.3752 169.774 70.8108C165.408 64.4121 159.77 60.443 153.241 57.9663C146.383 55.3646 139.073 53.8177 130.67 54.4895C122.165 55.1692 112.488 58.1225 100.976 64.5605C100.015 65.0996 98.8826 65.0527 97.9923 64.537C86.4961 58.1227 76.8272 55.1693 68.33 54.4897C59.9266 53.8178 52.6086 55.3647 45.7594 57.9665C39.2225 60.4432 33.5838 64.4122 29.2258 70.811C24.7507 77.3737 21.5565 86.5228 20.0256 99.2665C19.6508 115.994 23.3995 132.198 30.5534 146.659C37.801 161.308 48.5553 174.169 62.0671 183.965C67.4871 187.895 73.3837 189.825 79.3192 189.989C85.6139 190.153 92.0027 188.356 97.9693 184.856C98.9612 184.27 100.156 184.317 101.078 184.879L101.07 184.879Z" fill="black"/>
<path d="M86.1252 48.3628C90.6159 50.0348 95.2004 50.7849 99.5662 50.5817C99.7691 46.2143 99.0194 41.628 97.3481 37.1356C95.3646 31.7915 92.0766 26.588 87.5467 22.0566C83.0168 17.5251 77.8155 14.2359 72.4735 12.2514C67.9827 10.5794 63.3982 9.82937 59.0325 10.0325C58.8295 14.3999 59.5792 18.9862 61.2505 23.4786C63.2341 28.8227 66.522 34.0262 71.0519 38.5577C75.5818 43.0891 80.7831 46.3783 86.1252 48.3628Z" fill="black"/>
</svg>
