<svg width="166" height="165" viewBox="0 0 166 165" fill="none" xmlns="http://www.w3.org/2000/svg">
<path d="M82.8835 0C75.5039 18.0056 71.0513 29.7825 62.8343 47.2519L61.5242 49.83L61.0267 50.82L60.4297 52.2802C49.9158 74.118 33.4444 105.221 0 165C26.2846 149.903 46.6531 140.597 65.641 137.045C64.7849 133.373 64.3674 129.614 64.3972 125.845L64.4263 125.008C64.8408 108.252 73.601 95.37 83.978 96.2445C94.355 97.119 102.419 111.416 102 128.172C101.921 131.323 101.565 134.359 100.939 137.169C119.719 140.823 139.876 150.109 165.8 165C160.688 155.636 156.128 147.196 151.771 139.153L148.255 133.155L145.971 128.452C101.664 46.3733 98.078 35.475 82.8835 0Z" fill="black"/>
</svg>
