<svg width="200" height="200" viewBox="0 0 200 200" fill="none" xmlns="http://www.w3.org/2000/svg">
<g clip-path="url(#clip0_12_71)">
<path d="M170.769 9.8349L59.5564 9.83491C56.9883 9.76958 54.4331 10.2188 52.0413 11.1562C49.6495 12.0936 47.4695 13.5001 45.6296 15.293C43.7898 17.0859 42.3273 19.2288 41.3284 21.5955C40.3294 23.9623 39.8142 26.505 39.8131 29.074C39.812 31.6429 40.3249 34.1861 41.3218 36.5537C42.3186 38.9213 43.7792 41.0655 45.6175 42.86C47.4558 44.6545 49.6346 46.063 52.0256 47.0024C54.4166 47.9419 56.9714 48.3934 59.5395 48.3303L125.23 48.2797L15.9091 157.601C12.2984 161.211 10.2698 166.109 10.2698 171.215C10.2698 176.321 12.2984 181.219 15.9091 184.829C19.5199 188.44 24.4172 190.469 29.5236 190.469C34.63 190.469 39.5272 188.44 43.138 184.829L152.155 75.8126L152.206 140.996C152.333 146.018 154.418 150.791 158.016 154.296C161.613 157.802 166.438 159.763 171.462 159.76C176.485 159.758 181.308 157.793 184.902 154.284C188.497 150.776 190.578 146.001 190.701 140.979L190.701 29.7667C190.709 27.2369 190.214 24.7308 189.245 22.3938C188.277 20.0567 186.854 17.9352 185.059 16.1523C184.956 16.031 184.843 15.918 184.721 15.8144C184.617 15.694 184.504 15.5811 184.384 15.4766C180.772 11.8672 175.875 9.83816 170.769 9.8349Z" fill="black"/>
</g>
<defs>
<clipPath id="clip0_12_71">
<rect width="200" height="200" fill="white"/>
</clipPath>
</defs>
</svg>
