<svg width="182" height="200" viewBox="0 0 182 200" fill="none" xmlns="http://www.w3.org/2000/svg">
<path d="M38.3672 181.918L140.198 163.978C143.327 163.431 146.545 164.145 149.147 165.964C151.748 167.783 153.521 170.558 154.075 173.68C154.233 174.556 154.29 175.446 154.246 176.335L154.105 177.665L152.116 189.955C151.691 192.573 150.405 194.976 148.462 196.785C146.519 198.594 144.029 199.707 141.382 199.948L140.287 200H37.8532C36.8046 200 35.7663 199.794 34.7975 199.393C33.8287 198.993 32.9484 198.406 32.207 197.666C31.4655 196.925 30.8773 196.047 30.476 195.08C30.0748 194.113 29.8682 193.076 29.8682 192.03C29.867 189.798 30.595 187.626 31.9419 185.844C33.2888 184.062 35.1811 182.768 37.3318 182.156L38.3672 181.918ZM85.4428 6.34754e-05C107.469 0.00143262 128.833 7.51704 145.992 21.3007C163.152 35.0844 175.076 54.3081 179.788 75.7844H119.178C115.83 70.0701 111.14 65.2545 105.511 61.7529C99.8832 58.2513 93.4861 56.1688 86.8718 55.6851C80.2576 55.2014 73.6247 56.331 67.5453 58.9764C61.466 61.6218 56.1225 65.7037 51.9759 70.8699L30.7174 55.2342C21.1862 66.8344 15.9772 81.3731 15.9772 96.3755C15.9772 111.378 21.1862 125.917 30.7174 137.517L51.9759 121.881C56.1239 127.047 61.4685 131.128 67.5488 133.773C73.6291 136.418 80.2626 137.547 86.8774 137.062C93.4922 136.578 99.8896 134.495 105.518 130.992C111.147 127.49 115.837 122.674 119.185 116.959L179.78 116.974C176.128 133.695 168.069 149.138 156.436 161.71C154.353 159.614 151.828 158.007 149.045 157.005C146.263 156.003 143.291 155.632 140.347 155.918L138.805 156.134L36.9817 174.074C34.963 174.423 33.0185 175.112 31.2313 176.112C24.7963 171.77 18.9156 166.662 13.7195 160.9C12.9737 160.073 12.4094 159.099 12.063 158.042C11.7165 156.984 11.5955 155.866 11.7078 154.759C11.82 153.652 12.163 152.581 12.7147 151.614C13.2664 150.647 14.0146 149.806 14.9113 149.145L17.8535 146.989C6.30008 132.642 0.00135478 114.788 2.18524e-07 96.3805C-0.00135435 77.9735 6.29474 60.118 17.846 45.7696L14.9113 43.606C13.2342 42.3728 12.1063 40.5344 11.7681 38.4828C11.43 36.4313 11.9084 34.329 13.1012 32.6246L13.7195 31.8514C22.7637 21.8129 33.8248 13.7885 46.1825 8.30068C58.5401 2.81281 71.9173 -0.0154499 85.4428 6.34754e-05ZM83.8786 71.5168C88.8053 71.5153 93.6219 72.9722 97.719 75.7032C101.816 78.4343 105.01 82.3167 106.896 86.8596C108.783 91.4025 109.277 96.4017 108.317 101.225C107.356 106.048 104.985 110.479 101.502 113.957C98.0184 117.435 93.5801 119.803 88.7482 120.763C83.9162 121.723 78.9076 121.231 74.3557 119.35C69.8039 117.468 65.9133 114.282 63.176 110.193C60.4387 106.104 58.9777 101.297 58.9777 96.3792C58.9777 89.7866 61.6009 83.4638 66.2705 78.8014C70.9402 74.139 77.2738 71.5187 83.8786 71.5168ZM181.173 83.7472C182.276 92.1301 182.276 100.621 181.173 109.004L122.768 108.996C125.156 101.607 125.399 93.6928 123.468 86.171L122.768 83.7547L181.173 83.7472Z" fill="black"/>
</svg>
